<svg width="265" height="56" viewBox="0 0 265 56" fill="none" xmlns="http://www.w3.org/2000/svg">
<path d="M183 56V32H191V56H183ZM215 56V32H223V56H215ZM191 32V24H199V32H191ZM207 32V24H215V32H207ZM199 24V16H207V24H199ZM191 16V8H199V16H191ZM207 16V8H215V16H207ZM183 8V0H191V8H183ZM215 8V0H223V8H215Z" fill="black"/>
<path d="M135 56V0H175V8H143V16H159V24H143V48H175V56H135Z" fill="black"/>
<path d="M87 56V0H95V48H127V56H87Z" fill="black"/>
<path d="M39 56V8H47V16H71V8H79V56H71V24H47V56H39ZM47 8V0H71V8H47Z" fill="black"/>
<path d="M30.1011 0V10.6667H19.5393V45.8667H30.1011V56H19.5393L7.92135 45.8667V35.7333L0 28.2667L7.92135 20.2667V10.6667L19.5393 0H30.1011Z" fill="#4285F4"/>
<path d="M233.617 0V10.6667H245.179V45.8667H233.617V56H245.179L256.19 45.8667V35.7333L264.999 28.2667L256.19 20.2667V10.6667L245.179 0H233.617Z" fill="#4285F4"/>
</svg>
